#!OML:ASF H:\Terrain\Patient Classification 1\Terrain2\Thursday\justin.ASF
:FULLY-SPECIFIED
:DEGREES
2654
root 20.3005 20.7522 -10.2187 176.034 -363.591 -530.145
lowerback 7.80076 1.7929 8.80524
upperback 3.11935 2.51265 4.61358
thorax -0.914503 1.03082 -0.342888
lowerneck -11.2574 1.58989 -9.39158
upperneck 40.3384 -2.28885 4.83647
head 16.4974 -3.44074 2.96535
rclavicle 8.89561e-015 -6.32135e-014
rhumerus -29.1621 -10.7057 -76.7933
rradius 33.1292
rwrist -10.8841
rhand -20.8424 11.5037
rfingers 7.12502
rthumb 5.52656 -18.4042
lclavicle 8.89561e-015 -6.32135e-014
lhumerus -37.9554 6.53518 84.1464
lradius 33.7295
lwrist 7.0121
lhand -19.2631 18.8885
lfingers 7.12502
lthumb 7.05115 48.751
rfemur 4.16801 -6.34856 34.5187
rtibia 17.1824
rfoot -12.814 -1.08425
rtoes 14.0173
lfemur -31.4475 3.24365 -8.03206
ltibia 71.2285
lfoot -1.02734 -10.1604
ltoes -5.701
2655
root 20.2914 20.7335 -10.3169 176.17 -363.502 -530.056
lowerback 7.73438 1.85568 8.997
upperback 3.08616 2.6056 4.58865
thorax -0.894354 1.07903 -0.479139
lowerneck -11.2953 1.61586 -9.33712
upperneck 40.3306 -2.21777 4.79051
head 16.4939 -3.40211 2.9481
rclavicle -6.4605e-016 -7.196e-014
rhumerus -28.8786 -10.4927 -76.7887
rradius 33.7103
rwrist -10.1326
rhand -20.4295 11.8465
rfingers 7.12502
rthumb 5.92515 -18.0507
lclavicle -6.4605e-016 -7.196e-014
lhumerus -37.8717 6.65427 84.1846
lradius 34.2688
lwrist 6.8623
lhand -18.7622 19.5929
lfingers 7.12502
lthumb 7.53467 49.4387
rfemur 4.43253 -6.3336 34.5927
rtibia 17.1318
rfoot -13.0736 -1.05259
rtoes 13.8614
lfemur -32.3995 3.30292 -8.13482
ltibia 70.2384
lfoot -0.567609 -9.98566
ltoes -6.13042
2656
root 20.2847 20.7271 -10.4124 176.392 -363.448 -530.12
lowerback 7.62747 1.9479 9.02026
upperback 3.04908 2.73052 4.52542
thorax -0.860985 1.14729 -0.563926
lowerneck -11.3727 1.55831 -9.34895
upperneck 40.3366 -2.26479 4.75999
head 16.5227 -3.41995 2.93065
rclavicle -1.56046e-014 5.96354e-015
rhumerus -28.6313 -10.2583 -76.8805
rradius 34.3173
rwrist -10.0364
rhand -20.4161 11.61
rfingers 7.12502
rthumb 5.93808 -18.2868
lclavicle -1.56046e-014 5.96354e-015
lhumerus -37.6346 6.7498 84.2861
lradius 34.5244
lwrist 6.8612
lhand -18.7067 19.7972
lfingers 7.12502
lthumb 7.58827 49.641
rfemur 4.67618 -6.20448 34.5376
rtibia 16.925
rfoot -13.3722 -1.07651
rtoes 13.866
lfemur -33.3541 3.37067 -8.40808
ltibia 69.0349
lfoot 0.119542 -9.92408
ltoes -7.10024
2657
root 20.2792 20.7146 -10.5103 176.429 -363.352 -529.947
lowerback 7.68633 2.02122 9.26787
upperback 3.01391 2.85333 4.50799
thorax -0.905673 1.2062 -0.728708
lowerneck -11.346 1.52245 -9.54325
upperneck 40.4469 -2.43769 5.04588
head 16.5997 -3.50021 3.06546
rclavicle 6.26172e-015 -3.69739e-014
rhumerus -28.53 -9.75422 -77.1498
rradius 35.035
rwrist -11.1546
rhand -20.9054 11.5913
rfingers 7.12502
rthumb 5.46567 -18.3183
lclavicle 6.26172e-015 -3.69739e-014
lhumerus -37.4563 6.5638 84.472
lradius 34.6339
lwrist 7.51779
lhand -19.667 19.22
lfingers 7.12502
lthumb 6.66132 49.0952
rfemur 5.15126 -5.91361 34.7782
rtibia 16.6514
rfoot -13.5992 -1.4419
rtoes 13.4906
lfemur -34.0703 3.50092 -8.37963
ltibia 67.7045
lfoot 1.03645 -10.0796
ltoes -6.21127
2658
root 20.2723 20.6939 -10.6144 176.342 -363.293 -529.638
lowerback 7.77506 1.9934 9.6111
upperback 2.99839 2.83985 4.54699
thorax -0.953091 1.19241 -0.877658
lowerneck -11.3241 1.60084 -9.73212
upperneck 40.6233 -2.44949 5.30342
head 16.6952 -3.52859 3.21298
rclavicle -2.6985e-014 1.03368e-014
rhumerus -28.4234 -8.97832 -77.417
rradius 35.7616
rwrist -12.0011
rhand -21.2433 11.5929
rfingers 7.12502
rthumb 5.13941 -18.3247
lclavicle -2.6985e-014 1.03368e-014
lhumerus -37.5626 6.39628 84.6032
lradius 35.088
lwrist 8.27737
lhand -20.4681 18.4672
lfingers 7.12502
lthumb 5.88791 48.3654
rfemur 5.75235 -5.6628 35.1534
rtibia 16.4087
rfoot -13.9092 -1.76375
rtoes 13.466
lfemur -34.5564 3.54957 -8.18453
ltibia 66.2406
lfoot 2.06102 -10.2609
ltoes -5.0488
2659
root 20.2688 20.6719 -10.7186 176.294 -363.213 -529.681
lowerback 7.75834 1.98868 9.50543
upperback 3.05937 2.81657 4.53708
thorax -0.887394 1.18378 -0.826818
lowerneck -11.2811 1.63242 -9.84083
upperneck 40.5947 -2.37376 5.30877
head 16.661 -3.51316 3.24691
rclavicle -7.35503e-015 -6.40087e-014
rhumerus -28.2097 -8.31266 -77.5852
rradius 36.4334
rwrist -12.3364
rhand -21.0662 11.6549
rfingers 7.12502
rthumb 5.31046 -18.2586
lclavicle -7.35503e-015 -6.40087e-014
lhumerus -37.6218 6.28626 84.7331
lradius 35.7271
lwrist 8.53333
lhand -20.4103 18.8165
lfingers 7.12502
lthumb 5.9437 48.7131
rfemur 6.27845 -5.27516 35.186
rtibia 16.3335
rfoot -14.3677 -2.08349
rtoes 13.8856
lfemur -34.9384 3.62181 -8.39557
ltibia 64.611
lfoot 3.17092 -10.569
ltoes -5.9274
2660
root 20.2703 20.6452 -10.8208 176.231 -362.971 -529.774
lowerback 7.82616 2.06006 9.27166
upperback 3.10067 2.89737 4.57565
thorax -0.891001 1.22167 -0.666616
lowerneck -11.359 1.60678 -10.0762
upperneck 40.6309 -2.36407 5.36105
head 16.7039 -3.54114 3.31536
rclavicle 8.44835e-016 -1.55052e-014
rhumerus -28.0547 -7.93369 -77.563
rradius 37.1067
rwrist -12.2207
rhand -20.5906 11.8332
rfingers 7.12502
rthumb 5.76961 -18.0683
lclavicle 8.44835e-016 -1.55052e-014
lhumerus -37.5877 6.13209 85.013
lradius 36.1106
lwrist 8.80535
lhand -20.4639 19.7334
lfingers 7.12502
lthumb 5.89192 49.6315
rfemur 6.75199 -4.62299 35.2568
rtibia 16.4281
rfoot -14.7551 -2.63554
rtoes 13.5934
lfemur -35.182 3.82981 -8.61655
ltibia 62.8128
lfoot 4.62455 -10.7726
ltoes -4.81426
